<svg width="178" height="46" viewBox="0 0 178 46" fill="none" xmlns="http://www.w3.org/2000/svg">
<ellipse cx="32.1134" cy="10.9809" rx="2.75258" ry="2.99479" fill="white"/>
<ellipse cx="144.052" cy="10.9809" rx="2.75258" ry="2.99479" fill="white"/>
<path d="M50.3072 4.8C51.7366 4.8 52.8566 5.14133 53.6672 5.824C54.4779 6.50667 54.8832 7.44533 54.8832 8.64C54.8832 9.83467 54.4779 10.7733 53.6672 11.456C52.8566 12.128 51.7366 12.464 50.3072 12.464H47.2992V16H46.1152V4.8H50.3072ZM50.2752 11.424C51.3846 11.424 52.2326 11.184 52.8192 10.704C53.4059 10.2133 53.6992 9.52533 53.6992 8.64C53.6992 7.73333 53.4059 7.04 52.8192 6.56C52.2326 6.06933 51.3846 5.824 50.2752 5.824H47.2992V11.424H50.2752ZM73.6834 4.8V16H72.5154V10.832H65.5074V16H64.3234V4.8H65.5074V9.792H72.5154V4.8H73.6834ZM89.115 16.096C88.0057 16.096 86.9977 15.8507 86.091 15.36C85.195 14.8587 84.491 14.176 83.979 13.312C83.4777 12.448 83.227 11.4773 83.227 10.4C83.227 9.32267 83.4777 8.352 83.979 7.488C84.491 6.624 85.195 5.94667 86.091 5.456C86.9977 4.95467 88.0057 4.704 89.115 4.704C90.2243 4.704 91.2217 4.94933 92.107 5.44C93.003 5.93067 93.707 6.61333 94.219 7.488C94.731 8.352 94.987 9.32267 94.987 10.4C94.987 11.4773 94.731 12.4533 94.219 13.328C93.707 14.192 93.003 14.8693 92.107 15.36C91.2217 15.8507 90.2243 16.096 89.115 16.096ZM89.115 15.04C90.0003 15.04 90.8003 14.8427 91.515 14.448C92.2297 14.0427 92.7897 13.488 93.195 12.784C93.6003 12.0693 93.803 11.2747 93.803 10.4C93.803 9.52533 93.6003 8.736 93.195 8.032C92.7897 7.31733 92.2297 6.76267 91.515 6.368C90.8003 5.96267 90.0003 5.76 89.115 5.76C88.2297 5.76 87.4243 5.96267 86.699 6.368C85.9843 6.76267 85.419 7.31733 85.003 8.032C84.5977 8.736 84.395 9.52533 84.395 10.4C84.395 11.2747 84.5977 12.0693 85.003 12.784C85.419 13.488 85.9843 14.0427 86.699 14.448C87.4243 14.8427 88.2297 15.04 89.115 15.04ZM106.541 5.824H102.605V4.8H111.661V5.824H107.725V16H106.541V5.824ZM125.172 16.096C124.063 16.096 123.055 15.8507 122.148 15.36C121.252 14.8587 120.548 14.176 120.036 13.312C119.535 12.448 119.284 11.4773 119.284 10.4C119.284 9.32267 119.535 8.352 120.036 7.488C120.548 6.624 121.252 5.94667 122.148 5.456C123.055 4.95467 124.063 4.704 125.172 4.704C126.281 4.704 127.279 4.94933 128.164 5.44C129.06 5.93067 129.764 6.61333 130.276 7.488C130.788 8.352 131.044 9.32267 131.044 10.4C131.044 11.4773 130.788 12.4533 130.276 13.328C129.764 14.192 129.06 14.8693 128.164 15.36C127.279 15.8507 126.281 16.096 125.172 16.096ZM125.172 15.04C126.057 15.04 126.857 14.8427 127.572 14.448C128.287 14.0427 128.847 13.488 129.252 12.784C129.657 12.0693 129.86 11.2747 129.86 10.4C129.86 9.52533 129.657 8.736 129.252 8.032C128.847 7.31733 128.287 6.76267 127.572 6.368C126.857 5.96267 126.057 5.76 125.172 5.76C124.287 5.76 123.481 5.96267 122.756 6.368C122.041 6.76267 121.476 7.31733 121.06 8.032C120.655 8.736 120.452 9.52533 120.452 10.4C120.452 11.2747 120.655 12.0693 121.06 12.784C121.476 13.488 122.041 14.0427 122.756 14.448C123.481 14.8427 124.287 15.04 125.172 15.04Z" fill="white"/>
<path d="M24.456 28.8162V40.0162H23.32V31.0562L18.92 38.5922H18.36L13.96 31.1042V40.0162H12.824V28.8162H13.8L18.664 37.1202L23.48 28.8162H24.456ZM33.0013 40.1122C31.8919 40.1122 30.8839 39.8669 29.9773 39.3762C29.0813 38.8749 28.3773 38.1922 27.8653 37.3282C27.3639 36.4642 27.1133 35.4936 27.1133 34.4162C27.1133 33.3389 27.3639 32.3682 27.8653 31.5042C28.3773 30.6402 29.0813 29.9629 29.9773 29.4722C30.8839 28.9709 31.8919 28.7202 33.0013 28.7202C34.1106 28.7202 35.1079 28.9656 35.9933 29.4562C36.8893 29.9469 37.5933 30.6296 38.1053 31.5042C38.6173 32.3682 38.8733 33.3389 38.8733 34.4162C38.8733 35.4936 38.6173 36.4696 38.1053 37.3442C37.5933 38.2082 36.8893 38.8856 35.9933 39.3762C35.1079 39.8669 34.1106 40.1122 33.0013 40.1122ZM33.0013 39.0562C33.8866 39.0562 34.6866 38.8589 35.4013 38.4642C36.1159 38.0589 36.6759 37.5042 37.0813 36.8002C37.4866 36.0856 37.6893 35.2909 37.6893 34.4162C37.6893 33.5416 37.4866 32.7522 37.0813 32.0482C36.6759 31.3336 36.1159 30.7789 35.4013 30.3842C34.6866 29.9789 33.8866 29.7762 33.0013 29.7762C32.1159 29.7762 31.3106 29.9789 30.5853 30.3842C29.8706 30.7789 29.3053 31.3336 28.8893 32.0482C28.4839 32.7522 28.2812 33.5416 28.2812 34.4162C28.2812 35.2909 28.4839 36.0856 28.8893 36.8002C29.3053 37.5042 29.8706 38.0589 30.5853 38.4642C31.3106 38.8589 32.1159 39.0562 33.0013 39.0562ZM53.1591 28.8162V40.0162H52.0231V31.0562L47.6231 38.5922H47.0631L42.6631 31.1042V40.0162H41.5271V28.8162H42.5031L47.3671 37.1202L52.1831 28.8162H53.1591ZM64.7284 38.9922V40.0162H56.8084V28.8162H64.4884V29.8402H57.9924V33.8242H63.7844V34.8322H57.9924V38.9922H64.7284ZM76.8715 28.8162V40.0162H75.8955L68.6955 30.9282V40.0162H67.5115V28.8162H68.4875L75.7035 37.9042V28.8162H76.8715ZM82.7031 29.8402H78.7671V28.8162H87.8231V29.8402H83.8871V40.0162H82.7031V29.8402ZM95.0861 29.8402V34.2402H100.878V35.2642H95.0861V40.0162H93.9021V28.8162H101.582V29.8402H95.0861ZM108.783 40.1122C107.673 40.1122 106.665 39.8669 105.759 39.3762C104.863 38.8749 104.159 38.1922 103.647 37.3282C103.145 36.4642 102.895 35.4936 102.895 34.4162C102.895 33.3389 103.145 32.3682 103.647 31.5042C104.159 30.6402 104.863 29.9629 105.759 29.4722C106.665 28.9709 107.673 28.7202 108.783 28.7202C109.892 28.7202 110.889 28.9656 111.775 29.4562C112.671 29.9469 113.375 30.6296 113.887 31.5042C114.399 32.3682 114.655 33.3389 114.655 34.4162C114.655 35.4936 114.399 36.4696 113.887 37.3442C113.375 38.2082 112.671 38.8856 111.775 39.3762C110.889 39.8669 109.892 40.1122 108.783 40.1122ZM108.783 39.0562C109.668 39.0562 110.468 38.8589 111.183 38.4642C111.897 38.0589 112.457 37.5042 112.863 36.8002C113.268 36.0856 113.471 35.2909 113.471 34.4162C113.471 33.5416 113.268 32.7522 112.863 32.0482C112.457 31.3336 111.897 30.7789 111.183 30.3842C110.468 29.9789 109.668 29.7762 108.783 29.7762C107.897 29.7762 107.092 29.9789 106.367 30.3842C105.652 30.7789 105.087 31.3336 104.671 32.0482C104.265 32.7522 104.062 33.5416 104.062 34.4162C104.062 35.2909 104.265 36.0856 104.671 36.8002C105.087 37.5042 105.652 38.0589 106.367 38.4642C107.092 38.8589 107.897 39.0562 108.783 39.0562ZM124.956 40.0162L122.396 36.4162C122.108 36.4482 121.81 36.4642 121.5 36.4642H118.492V40.0162H117.308V28.8162H121.5C122.93 28.8162 124.05 29.1576 124.86 29.8402C125.671 30.5229 126.076 31.4616 126.076 32.6562C126.076 33.5309 125.852 34.2722 125.404 34.8802C124.967 35.4776 124.338 35.9096 123.516 36.1762L126.252 40.0162H124.956ZM121.468 35.4562C122.578 35.4562 123.426 35.2109 124.012 34.7202C124.599 34.2296 124.892 33.5416 124.892 32.6562C124.892 31.7496 124.599 31.0562 124.012 30.5762C123.426 30.0856 122.578 29.8402 121.468 29.8402H118.492V35.4562H121.468ZM136.898 36.1442V40.0162H135.73V36.1442L131.25 28.8162H132.514L136.354 35.1042L140.194 28.8162H141.378L136.898 36.1442ZM147.626 40.1122C146.517 40.1122 145.509 39.8669 144.602 39.3762C143.706 38.8749 143.002 38.1922 142.49 37.3282C141.989 36.4642 141.738 35.4936 141.738 34.4162C141.738 33.3389 141.989 32.3682 142.49 31.5042C143.002 30.6402 143.706 29.9629 144.602 29.4722C145.509 28.9709 146.517 28.7202 147.626 28.7202C148.736 28.7202 149.733 28.9656 150.618 29.4562C151.514 29.9469 152.218 30.6296 152.73 31.5042C153.242 32.3682 153.498 33.3389 153.498 34.4162C153.498 35.4936 153.242 36.4696 152.73 37.3442C152.218 38.2082 151.514 38.8856 150.618 39.3762C149.733 39.8669 148.736 40.1122 147.626 40.1122ZM147.626 39.0562C148.512 39.0562 149.312 38.8589 150.026 38.4642C150.741 38.0589 151.301 37.5042 151.706 36.8002C152.112 36.0856 152.314 35.2909 152.314 34.4162C152.314 33.5416 152.112 32.7522 151.706 32.0482C151.301 31.3336 150.741 30.7789 150.026 30.3842C149.312 29.9789 148.512 29.7762 147.626 29.7762C146.741 29.7762 145.936 29.9789 145.21 30.3842C144.496 30.7789 143.93 31.3336 143.514 32.0482C143.109 32.7522 142.906 33.5416 142.906 34.4162C142.906 35.2909 143.109 36.0856 143.514 36.8002C143.93 37.5042 144.496 38.0589 145.21 38.4642C145.936 38.8589 146.741 39.0562 147.626 39.0562ZM160.664 40.1122C159.213 40.1122 158.083 39.6962 157.272 38.8642C156.461 38.0322 156.056 36.8216 156.056 35.2322V28.8162H157.24V35.1842C157.24 36.4856 157.533 37.4562 158.12 38.0962C158.707 38.7362 159.555 39.0562 160.664 39.0562C161.784 39.0562 162.637 38.7362 163.224 38.0962C163.811 37.4562 164.104 36.4856 164.104 35.1842V28.8162H165.256V35.2322C165.256 36.8216 164.851 38.0322 164.04 38.8642C163.24 39.6962 162.115 40.1122 160.664 40.1122Z" fill="white"/>
</svg>
