<svg viewBox="0 0 80 80" xmlns="http://www.w3.org/2000/svg">
<path d="M64.8431 8.69244L43.9923 23.8415L78.929 49.2248C79.6281 46.2681 80 43.1863 80 40.0192C80 27.3428 74.0715 16.0262 64.8431 8.69244Z"/>
<path d="M60.7788 5.85139C54.7191 2.15248 47.6041 0.019043 40 0.019043C31.8279 0.019043 24.2216 2.48436 17.8821 6.70764L25.8502 31.2289L60.7788 5.85139Z"/>
<path d="M13.9283 9.70807C5.40547 17.0492 0 27.9143 0 40.019C0 43.7385 0.512188 47.3403 1.46641 50.7595H27.2678L13.9283 9.70807Z"/>
<path d="M3.09644 55.4471C8.94034 69.3734 22.4457 79.3179 38.3097 79.9809L46.2811 55.4471H3.09644Z"/>
<path d="M43.2695 79.8847C58.9958 78.6064 72.1775 68.1927 77.4877 53.9714L56.6163 38.8074L43.2695 79.8847Z"/>
</svg>
