<svg viewBox="0 0 80 64" xmlns="http://www.w3.org/2000/svg">
<path d="M74.9204 0.889038H5.07944C2.27436 0.889038 0 3.16326 0 5.96834V58.032C0 60.8369 2.27436 63.1111 5.07944 63.1111H74.9204C77.7256 63.1111 80 60.8369 80 58.0318V5.96834C80 3.16326 77.7258 0.889038 74.9204 0.889038ZM74.9204 5.96834V42.9092L64.9103 33.8083C63.4057 32.4407 61.092 32.4953 59.6545 33.9341L49.5235 44.0635L29.5479 20.2032C28.038 18.4 25.2723 18.3823 23.7397 20.1638L5.07944 41.8503V5.96834H74.9204ZM53.3334 19.3017C53.3334 15.4439 56.4594 12.3175 60.3172 12.3175C64.1752 12.3175 67.3014 15.4439 67.3014 19.3017C67.3014 23.1595 64.1753 26.2857 60.3172 26.2857C56.4596 26.2858 53.3334 23.1595 53.3334 19.3017Z"/>
</svg>
