<svg viewBox="0 0 80 64" xmlns="http://www.w3.org/2000/svg">
<path d="M74.169 9.21948H52.9928L48.7167 2.03581C48.2984 1.33345 47.5416 0.903137 46.7242 0.903137H33.2753C32.4579 0.903137 31.7008 1.33345 31.2828 2.03581L27.0066 9.21948H20.0578V7.63618C20.0578 6.35564 19.0196 5.31747 17.7391 5.31747H9.15954C7.87874 5.31747 6.84082 6.35564 6.84082 7.63618V9.21948H5.83076C2.61028 9.21948 0 11.83 0 15.05V57.2659C0 60.4861 2.61028 63.0966 5.8305 63.0966H74.169C77.3892 63.0966 79.9997 60.4861 79.9997 57.2659V15.05C80 11.83 77.3892 9.21948 74.169 9.21948ZM39.9997 52.7544C30.8337 52.7544 23.4032 45.324 23.4032 36.1577C23.4032 26.9919 30.8337 19.5612 39.9997 19.5612C49.1658 19.5612 56.5962 26.9919 56.5962 36.1577C56.5962 45.324 49.1658 52.7544 39.9997 52.7544ZM70.5312 21.2402H63.2655C61.985 21.2402 60.9468 20.2021 60.9468 18.9213C60.9468 17.6405 61.985 16.6023 63.2655 16.6023H70.5312C71.8122 16.6023 72.8502 17.6405 72.8502 18.9213C72.8502 20.2021 71.812 21.2402 70.5312 21.2402Z"/>
<path d="M39.9998 47.752C46.4031 47.752 51.5941 42.5611 51.5941 36.1577C51.5941 29.7543 46.4031 24.5633 39.9998 24.5633C33.5964 24.5633 28.4054 29.7543 28.4054 36.1577C28.4054 42.5611 33.5964 47.752 39.9998 47.752Z"/>
</svg>
