<svg viewBox="0 0 80 66" xmlns="http://www.w3.org/2000/svg">
<path d="M35.2645 0.422239C34.604 0.132807 33.8245 0.269512 33.2971 0.770308L14.5722 18.455H1.81824C0.813239 18.455 0 19.2682 0 20.273V45.7276C0 46.7326 0.813239 47.5458 1.81824 47.5458H14.5722L33.2973 65.2305C33.6418 65.5572 34.0909 65.7277 34.5455 65.7277C34.7888 65.7277 35.0339 65.6798 35.2647 65.5785C35.9324 65.2927 36.3638 64.6358 36.3638 63.9094V2.09133C36.3636 1.36502 35.9322 0.708092 35.2645 0.422239Z" />
<path d="M44.7361 22.8097L42.1454 25.4005C41.5479 25.9979 41.3885 26.9632 41.8875 27.645C42.9867 29.1483 43.6363 30.9999 43.6363 33.0004C43.6363 35.0008 42.9867 36.8525 41.8875 38.3555C41.3885 39.0374 41.5479 40.0028 42.1454 40.6003L44.7361 43.1908C45.5296 43.9845 46.8257 43.8623 47.5111 42.9733C49.6409 40.2106 50.9091 36.7509 50.9091 33.0004C50.9091 29.2497 49.6409 25.79 47.5111 23.0272C46.8257 22.1383 45.5296 22.0161 44.7361 22.8097Z" />
<path d="M57.6857 12.5298C57.0022 11.7577 55.785 11.7607 55.0559 12.4899L52.4834 15.0624C51.7943 15.7514 51.8008 16.8343 52.4374 17.5717C56.0154 21.7149 58.1819 27.1093 58.1819 33.0002C58.1819 38.8911 56.0154 44.2855 52.4374 48.4291C51.8006 49.1665 51.7945 50.2491 52.4834 50.938L55.0559 53.5105C55.785 54.2399 57.0022 54.2428 57.6861 53.4708C62.5178 48.0151 65.4545 40.8442 65.4545 33.0004C65.4545 25.1564 62.5178 17.9856 57.6857 12.5298Z" />
<path d="M67.9712 2.22803C67.2754 1.47291 66.0705 1.47513 65.3447 2.2011L62.7688 4.77701C62.0779 5.46786 62.0813 6.55843 62.7403 7.28013C68.9407 14.071 72.7272 23.1021 72.7272 33.0004C72.7272 42.8987 68.9407 51.9296 62.7403 58.7206C62.0815 59.4423 62.0777 60.5329 62.7688 61.2238L65.3447 63.7995C66.0706 64.5256 67.2756 64.5277 67.9714 63.7726C75.4356 55.671 80 44.8587 80 33.0004C80 21.1419 75.4356 10.3294 67.9712 2.22803Z" />
</svg>
